<svg width="92" height="92" viewBox="0 0 92 92" fill="none" xmlns="http://www.w3.org/2000/svg">
<g id="icon__behance">
<path id="Exclude" fill-rule="evenodd" clip-rule="evenodd" d="M0.625 24.4875V67.9999C0.625 81.1279 11.3658 91.8687 24.4937 91.8687H68.0062C81.1341 91.8687 91.875 81.1279 91.875 67.9999V24.4875C91.875 11.3595 81.1341 0.618652 68.0062 0.618652H24.4937C11.3658 0.618652 0.625 11.3595 0.625 24.4875ZM47.9571 58.0985C48.5126 57.05 48.7903 55.8299 48.7903 54.4413C48.7903 52.2819 48.241 50.4813 47.1457 49.049C46.0504 47.6136 44.5588 46.6181 42.6771 46.0627C44.2218 45.3824 45.3952 44.3402 46.1971 42.9359C46.9991 41.5317 47.4016 40.0245 47.4016 38.4205C47.4016 37.4033 47.2238 36.3922 46.868 35.3874C46.5123 34.3857 46.013 33.487 45.364 32.7006C44.7149 31.9143 43.9285 31.2746 43.0017 30.7784C42.078 30.2823 41.042 30.0357 39.8999 30.0357H22.3034V62.9135H38.1867C39.6378 62.9135 41.0046 62.7294 42.284 62.358C43.5634 61.9898 44.6899 61.4499 45.6635 60.7385C46.6371 60.027 47.4016 59.147 47.9571 58.0985ZM28.6942 43.791V35.5029H37.494C38.5113 35.5029 39.3695 35.8742 40.0622 36.6138C40.7581 37.3565 41.1044 38.3581 41.1044 39.6251C41.1044 40.9201 40.7238 41.9405 39.9686 42.6801C39.2134 43.4196 38.2929 43.791 37.2132 43.791H28.6942ZM42.0562 51.5454C42.256 52.0884 42.3557 52.6501 42.3557 53.2367C42.3557 53.8234 42.2465 54.3789 42.0312 54.9031C41.8159 55.4274 41.5226 55.8829 41.1513 56.2699C40.7799 56.6537 40.3399 56.9564 39.8313 57.1717C39.3226 57.387 38.7734 57.4963 38.1867 57.4963H28.6942V48.8368H38.5113C39.0667 48.8368 39.5785 48.9523 40.0403 49.1832C40.5053 49.4141 40.9047 49.7293 41.2449 50.1318C41.585 50.5344 41.8565 51.0056 42.0562 51.5454ZM62.633 62.9135C60.7482 62.9135 59.0444 62.5921 57.5184 61.9492C54.4946 60.6636 52.3664 58.5011 51.1245 55.4648C50.5409 53.9982 50.2507 52.4598 50.2507 50.8433C50.2507 49.1676 50.5347 47.5918 51.1027 46.1095C52.3197 43.0358 54.451 40.8452 57.4966 39.5346C59.0382 38.8762 60.7637 38.5485 62.6797 38.5485C64.5926 38.5485 66.3057 38.8793 67.8161 39.5346C72.7808 41.7002 75.1212 46.5121 74.9059 51.7389C74.8903 52.0978 74.8529 52.3974 74.7936 52.6377H56.6197C56.7102 53.5644 56.9349 54.3882 57.2938 55.106C57.6526 55.8237 58.1144 56.4384 58.6855 56.9471C59.2534 57.4557 59.8963 57.8458 60.614 58.1141C61.3317 58.3825 62.0775 58.5198 62.8576 58.5198C64.0528 58.5198 65.1824 58.2265 66.2433 57.6429C67.3043 57.0594 68.0315 56.2918 68.4184 55.3338L73.5766 56.7692C72.7091 58.5635 71.3267 60.0364 69.4263 61.1879C67.5322 62.3393 65.2636 62.9135 62.633 62.9135ZM68.7367 48.737C68.5869 46.9739 67.9347 45.5603 66.7832 44.4962C65.6317 43.4353 64.2338 42.9048 62.5893 42.9048C61.781 42.9048 61.0258 43.0483 60.3237 43.3323C59.6216 43.6162 59.0007 44.0125 58.4608 44.5212C57.9241 45.0298 57.4809 45.6415 57.1377 46.3623C56.7944 47.08 56.5916 47.8726 56.5323 48.7401L68.7367 48.737ZM70.4555 31.5991H54.7219V35.5028H70.4555V31.5991Z" fill="#171717"/>
</g>
</svg>
