<svg width="92" height="92" viewBox="0 0 92 92" fill="none" xmlns="http://www.w3.org/2000/svg">
<g id="icon__in">
<path id="Exclude" fill-rule="evenodd" clip-rule="evenodd" d="M0.375 67.9999V24.4874C0.375 11.3595 11.1158 0.618652 24.2438 0.618652H67.7562C80.8842 0.618652 91.625 11.3595 91.625 24.4874V67.9999C91.625 81.1278 80.8842 91.8687 67.7562 91.8687H24.2438C11.1189 91.8718 0.375 81.131 0.375 67.9999ZM35.7052 37.7464V66.1337H26.8679V37.7464H35.7052ZM31.2866 23.6417C34.1138 23.6417 36.4011 25.9353 36.4011 28.7531C36.4011 31.5772 34.1106 33.8739 31.2866 33.8739C28.4532 33.8739 26.1627 31.5772 26.1627 28.7531C26.1658 25.9322 28.4532 23.6417 31.2866 23.6417ZM49.7038 37.7465H41.241V66.1338H50.0596V52.0915C50.0596 48.3906 50.7586 44.8051 55.352 44.8051C59.8736 44.8051 59.9391 49.0365 59.9391 52.3318V66.1338H68.7577V50.5656C68.7577 42.9203 67.11 37.0444 58.176 37.0444C53.876 37.0444 50.9989 39.3941 49.8193 41.6284H49.7038V37.7465Z" fill="#171717"/>
</g>
</svg>
