<svg width="92" height="92" viewBox="0 0 92 92" fill="none" xmlns="http://www.w3.org/2000/svg">
<g id="icon__instagram">
<path id="Exclude" fill-rule="evenodd" clip-rule="evenodd" d="M0.125 24.4874V67.9999C0.125 81.1278 10.8658 91.8687 23.9938 91.8687H67.5062C80.6342 91.8687 91.375 81.1278 91.375 67.9999V24.4874C91.375 11.3594 80.6342 0.618652 67.5062 0.618652H23.9938C10.8658 0.618652 0.125 11.3594 0.125 24.4874ZM56.778 32.1826C56.778 30.4507 58.1823 29.0465 59.9141 29.0465C61.646 29.0465 63.0503 30.4507 63.0503 32.1826C63.0503 33.9145 61.646 35.3187 59.9141 35.3187C58.1823 35.3187 56.778 33.9145 56.778 32.1826ZM45.9684 33.0688C38.7038 33.0688 32.7936 38.9791 32.7936 46.2436C32.7936 53.5082 38.7038 59.4184 45.9684 59.4184C53.233 59.4184 59.1433 53.5082 59.1433 46.2436C59.1433 38.9791 53.233 33.0688 45.9684 33.0688ZM45.9684 54.6846C41.3157 54.6846 37.5305 50.8994 37.5305 46.2467C37.5305 41.5941 41.3157 37.8089 45.9684 37.8089C50.6211 37.8089 54.4063 41.5941 54.4063 46.2467C54.4094 50.8963 50.6242 54.6846 45.9684 54.6846ZM35.0686 72.9926H56.4285C65.2908 72.9926 72.4992 65.7843 72.4992 56.9251V35.5652C72.4992 26.7061 65.2877 19.4977 56.4285 19.4977H35.0686C26.2095 19.4977 19.0011 26.703 19.0011 35.5652V56.9251C19.0011 65.7843 26.2095 72.9926 35.0686 72.9926ZM24.0345 35.5652C24.0345 29.4771 28.9868 24.528 35.0718 24.528H56.4317C62.5167 24.528 67.469 29.4802 67.469 35.5652V56.9251C67.469 63.0133 62.5167 67.9624 56.4317 67.9624H35.0718C28.9836 67.9624 24.0345 63.0101 24.0345 56.9251V35.5652Z" fill="#171717"/>
</g>
</svg>
